<svg xmlns="http://www.w3.org/2000/svg" width="62" height="62" viewBox="0 0 62 62">
  <g id="dropbox" transform="translate(-524 -8056)">
    <g id="Rectangle_24537" data-name="Rectangle 24537" transform="translate(524 8056)" fill="none" stroke="#fff" stroke-width="2">
      <rect width="62" height="62" rx="15" stroke="none"/>
      <rect x="1" y="1" width="60" height="60" rx="14" fill="none"/>
    </g>
    <path id="dropbox-svgrepo-com" d="M26.711,6.565l-4.274,3.556,3.416,2.729a.843.843,0,0,1-.059,1.36l-3.867,2.575a.777.777,0,0,1,.02.1V21.1a.843.843,0,0,1-.376.7l-7.6,5.061a17.463,17.463,0,0,0-.176.083.753.753,0,0,1-.585,0,.852.852,0,0,1-.085-.04.749.749,0,0,1-.091-.043L5.428,21.8a.843.843,0,0,1-.376-.7V16.884a.958.958,0,0,1,.019-.1L1.2,14.211a.843.843,0,0,1-.059-1.36l3.416-2.729L.287,6.565a.844.844,0,0,1,.072-1.35L7.962.154a.843.843,0,0,1,1.01.054L13.5,3.976,18.027.208a.843.843,0,0,1,1.01-.054l7.6,5.061a.843.843,0,0,1,.073,1.35ZM23.9,13.448l-2.839-2.268-6.127,4.079,2.839,2.268ZM14.344,24.586l5.913-3.937V17.9l-2.066,1.375a.845.845,0,0,1-1-.043l-2.851-2.278Zm-.845-10.4,6.08-4.047L13.5,6.088l-6.08,4.047ZM6.741,20.65l5.913,3.937V16.952L9.8,19.229a.844.844,0,0,1-1,.043L6.741,17.9ZM9.23,17.527l2.839-2.268L5.942,11.179,3.1,13.448ZM8.375,1.907,2.238,5.993,5.953,9.084,12.09,5Zm10.249,0L14.909,5l6.137,4.085L24.76,5.993Z" transform="translate(541.322 8073.23)" fill="#fff"/>
  </g>
</svg>
