<svg xmlns="http://www.w3.org/2000/svg" xmlns:xlink="http://www.w3.org/1999/xlink" width="62" height="62" viewBox="0 0 62 62">
  <defs>
    <clipPath id="clip-path">
      <rect id="Rectangle_24541" data-name="Rectangle 24541" width="27.33" height="27.296" fill="#fff"/>
    </clipPath>
  </defs>
  <g id="gudl" transform="translate(-524 -7981)">
    <g id="Rectangle_24538" data-name="Rectangle 24538" transform="translate(524 7981)" fill="none" stroke="#fff" stroke-width="2">
      <rect width="62" height="62" rx="15" stroke="none"/>
      <rect x="1" y="1" width="60" height="60" rx="14" fill="none"/>
    </g>
    <g id="Group_29958" data-name="Group 29958" transform="translate(541.379 7998.242)" clip-path="url(#clip-path)">
      <path id="Path_14791" data-name="Path 14791" d="M13.711,27.3A4.689,4.689,0,0,1,9.148,23.7a.089.089,0,0,0-.052-.061,12.307,12.307,0,0,1-1.783-.891.087.087,0,0,1-.036-.043,12.409,12.409,0,0,1-.617-6.767.088.088,0,0,1,.062-.068h.017a.088.088,0,0,1,.071.025,12.308,12.308,0,0,0,4.08,2.909.09.09,0,0,0,.035.007.086.086,0,0,0,.051-.017,4.679,4.679,0,0,1,6.419.922.088.088,0,0,0,.069.034h.012c.427-.058.862-.14,1.291-.243a12.5,12.5,0,0,0,6.552-4.022.087.087,0,0,1,.067-.031.091.091,0,0,1,.042.01.088.088,0,0,1,.043.1,12.361,12.361,0,0,1-7.154,8.055.088.088,0,0,0-.052.061A4.68,4.68,0,0,1,13.711,27.3m-8.749-6.43A.086.086,0,0,1,4.9,20.84,12.2,12.2,0,0,1,1.509,10.63a.087.087,0,0,0-.027-.076A4.685,4.685,0,0,1,6.01,2.644a.083.083,0,0,0,.025,0,.087.087,0,0,0,.054-.019A12.1,12.1,0,0,1,7.755,1.516.087.087,0,0,1,7.8,1.506,12.407,12.407,0,0,1,14,4.366a.088.088,0,0,1-.038.152A12.3,12.3,0,0,0,9.388,6.6a.088.088,0,0,0-.036.079,4.608,4.608,0,0,1,.025.475A4.707,4.707,0,0,1,5.343,11.78a.087.087,0,0,0-.069.054c-.164.4-.311.82-.435,1.24a12.5,12.5,0,0,0,.206,7.676.088.088,0,0,1-.083.117M20.316,16.5a.087.087,0,0,1-.083-.113,12.307,12.307,0,0,0,.487-4.926.088.088,0,0,0-.05-.07,4.706,4.706,0,0,1-2.716-4.239A4.648,4.648,0,0,1,18.3,5.367a.087.087,0,0,0-.012-.086,13.214,13.214,0,0,0-.9-1.055A12.508,12.508,0,0,0,10.637.558a.087.087,0,0,1-.071-.083.088.088,0,0,1,.066-.088A12.185,12.185,0,0,1,21.242,2.631a.088.088,0,0,0,.054.019.085.085,0,0,0,.026,0,4.546,4.546,0,0,1,1.308-.193,4.683,4.683,0,0,1,3.218,8.1.087.087,0,0,0-.027.075,12.294,12.294,0,0,1,.112,1.639c0,.051,0,.1-.007.152l-.006.1a.086.086,0,0,1-.019.053A12.405,12.405,0,0,1,20.345,16.5Z" transform="translate(0 0)" fill="#fff"/>
    </g>
  </g>
</svg>
