<svg xmlns="http://www.w3.org/2000/svg" width="62" height="62" viewBox="0 0 62 62">
  <g id="link" transform="translate(-991 -8056)">
    <g id="Rectangle_24580" data-name="Rectangle 24580" transform="translate(991 8056)" fill="none" stroke="#fff" stroke-width="2">
      <rect width="62" height="62" rx="15" stroke="none"/>
      <rect x="1" y="1" width="60" height="60" rx="14" fill="none"/>
    </g>
    <path id="Union_2" data-name="Union 2" d="M16.727,17.473l-7.2-7.2a1.8,1.8,0,0,1,0-2.549l1.349-1.344L12.149,7.65,10.8,9,18,16.2,25.2,9,18,1.8,15.968,3.832,14.695,2.562,16.727.527a1.8,1.8,0,0,1,2.546,0l2.963,2.964L23.928,1.8,25.2,3.074,23.509,4.762l2.963,2.961a1.8,1.8,0,0,1,0,2.549l-7.2,7.2a1.8,1.8,0,0,1-2.546,0Zm-9,0L4.763,14.508,3.073,16.2,1.8,14.928l1.69-1.693L.527,10.271a1.8,1.8,0,0,1,0-2.549l7.2-7.2a1.8,1.8,0,0,1,2.549,0l7.2,7.2a1.8,1.8,0,0,1,0,2.549l-1.349,1.352L14.851,10.35,16.2,9,9,1.8,1.8,9,9,16.2l2.032-2.027L12.3,15.439l-2.029,2.033a1.8,1.8,0,0,1-2.549,0Z" transform="translate(1009 8078)" fill="#fff"/>
  </g>
</svg>
