<svg xmlns="http://www.w3.org/2000/svg" width="180.801" height="51.134" viewBox="0 0 180.801 51.134">
  <g id="Group_4" data-name="Group 4" transform="translate(-41 -23.997)">
    <path id="Path_1" data-name="Path 1" d="M1.711,24.641l1.852-1.852a.45.45,0,0,1,.632,0l2.928,2.928a.45.45,0,0,1,0,.632L5.271,28.2a.45.45,0,0,1-.632,0L1.711,25.275a.45.45,0,0,1,0-.632Zm-.758-2.2,21.5-21.5a3.27,3.27,0,0,1,4.611,0L37.295,11.184a1.472,1.472,0,0,1-.053,1.6l-.717.717-1.836-1.836a.45.45,0,0,0-.632,0L32.2,13.518a.45.45,0,0,0,0,.632l1.835,1.835-7.208,7.208a2.756,2.756,0,0,0,0,3.886l9.831,9.832a1.855,1.855,0,0,1-.137,1.907l-9.6,9.6a3.27,3.27,0,0,1-4.611,0L.952,27.054a3.27,3.27,0,0,1,0-4.611ZM22.766,4.092,24.618,2.24a.45.45,0,0,1,.632,0l2.928,2.928a.45.45,0,0,1,0,.632L26.326,7.654a.45.45,0,0,1-.632,0L22.766,4.726a.452.452,0,0,1,0-.634m4.7,4.768,1.852-1.852a.45.45,0,0,1,.632,0l2.928,2.928a.45.45,0,0,1,0,.632L31.023,12.42a.45.45,0,0,1-.632,0L27.464,9.493a.45.45,0,0,1,0-.633ZM20.938,43.569l1.852-1.852a.45.45,0,0,1,.632,0l2.928,2.928a.45.45,0,0,1,0,.632L24.5,47.129a.45.45,0,0,1-.632,0L20.938,44.2a.45.45,0,0,1,0-.632ZM16.166,39l1.852-1.852a.45.45,0,0,1,.632,0l2.928,2.928a.45.45,0,0,1,0,.632l-1.852,1.852a.45.45,0,0,1-.632,0l-2.927-2.928a.45.45,0,0,1,0-.632ZM11.23,34.185l1.852-1.852a.45.45,0,0,1,.632,0l2.928,2.928a.45.45,0,0,1,0,.632L14.79,37.745a.45.45,0,0,1-.632,0L11.23,34.817a.45.45,0,0,1,0-.632M6.67,29.375l1.853-1.852a.45.45,0,0,1,.632,0l2.928,2.928a.45.45,0,0,1,0,.632L10.23,32.935a.45.45,0,0,1-.632,0L6.67,30.007a.45.45,0,0,1,0-.632" transform="translate(40.999 24)" fill="#fff" fill-rule="evenodd"/>
    <path id="Path_2" data-name="Path 2" d="M60.657,70.168,73.9,56.927a1.713,1.713,0,0,1,2.415,0L86.4,67.013l-6.223,6.223a2.756,2.756,0,0,0,0,3.886l9.228,9.228-6.285,6.282a1.714,1.714,0,0,1-2.415,0L60.656,72.583a1.714,1.714,0,0,1,0-2.415Z" transform="translate(-12.345 -26.041)" fill="#4b4d4f" fill-rule="evenodd"/>
    <path id="Path_3" data-name="Path 3" d="M266.042,150.553l-7.753,7.753,7.793,7.258-.04-4.031-3.414-3.412,3.5-3.5Z" transform="translate(-188.038 -109.506)" fill="#e1261c" fill-rule="evenodd"/>
    <path id="Path_4" data-name="Path 4" d="M422.486,103.741h-9.17q-2.038,0-2.038,2.346,0,.278.031.865t.031.865q0,2.13,2.871,2.408,2.624.216,5.28.4a3.527,3.527,0,0,1,2.871,3.829V118a4.732,4.732,0,0,1-1.448,3.52,4.9,4.9,0,0,1-3.573,1.42h-9.212V119.7h8.861a2.35,2.35,0,0,0,1.5-.525,1.652,1.652,0,0,0,.664-1.358v-2.841q0-1.605-2.849-1.853-4.8-.371-5.325-.525a3.8,3.8,0,0,1-2.849-4.045v-2.84q0-5.217,5.341-5.217h9.016Z" transform="translate(-320.91 -65.121)" fill="#fff"/>
    <path id="Path_5" data-name="Path 5" d="M582.15,118.56a3.232,3.232,0,0,1-.725,2.038,2.212,2.212,0,0,1-1.806.926,3.238,3.238,0,0,1-3.18-2.254l-6.7-16.177v18.153h-3.211V101.923a4.178,4.178,0,0,1,.584-2.318,2.347,2.347,0,0,1,2.06-1.02,3.135,3.135,0,0,1,3.013,2.264l6.756,16.634V98.8h3.211Z" transform="translate(-461.369 -63.422)" fill="#fff"/>
    <rect id="Rectangle_1" data-name="Rectangle 1" width="3.211" height="22.446" transform="translate(123.961 35.378)" fill="#fff"/>
    <path id="Path_6" data-name="Path 6" d="M802.169,109.075q0,3.4-2.439,4.755a11.806,11.806,0,0,1-5.465.988q-.865,0-2.485-.062t-2.3-.062v8.244h-3.211V100.492H795.9q6.267,0,6.268,5.372Zm-3.211.247V106.05q0-2.315-2.664-2.316h-6.815v7.719h6.753q2.725,0,2.726-2.13" transform="translate(-656.225 -65.114)" fill="#fff"/>
    <path id="Path_7" data-name="Path 7" d="M986.266,117.134q0,5.805-5.094,5.8h-10.9V100.492h11.27a4.717,4.717,0,0,1,4.724,4.724v2.717a4,4,0,0,1-1.914,3.674,3.262,3.262,0,0,1,1.76,2.408,19,19,0,0,1,.154,3.118m-3.273-9.17v-2.13a1.94,1.94,0,0,0-.664-1.5,2.285,2.285,0,0,0-1.59-.6h-7.318v6.422H980.8a2.113,2.113,0,0,0,2.192-2.192m0,9.355v-2.1a1.571,1.571,0,0,0-.725-1.281,2.483,2.483,0,0,0-1.5-.54h-7.348v6.3h7.287a2.145,2.145,0,0,0,1.59-.726,2.323,2.323,0,0,0,.695-1.652" transform="translate(-819.392 -65.114)" fill="#e1261c"/>
    <path id="Path_8" data-name="Path 8" d="M1141.5,121.246h-3.413l-1.693-4.693H1126.7l-1.7,4.693h-3.414l7.379-20.378q.833-2.285,2.47-2.285,1.883,0,2.717,2.313Zm-6.275-7.935-3.734-10.264-3.617,10.264Z" transform="translate(-953.565 -63.422)" fill="#e1261c"/>
    <path id="Path_9" data-name="Path 9" d="M1318.726,103.734H1309.8a2.088,2.088,0,0,0-2.346,2.377v11.177a2.368,2.368,0,0,0,.679,1.7,2.215,2.215,0,0,0,1.667.71h8.861v3.242h-9.54a4.417,4.417,0,0,1-3.551-1.667,5.608,5.608,0,0,1-1.328-3.736V106.019a5.821,5.821,0,0,1,1.358-3.967,4.732,4.732,0,0,1,3.767-1.559h9.355Z" transform="translate(-1115.543 -65.114)" fill="#e1261c"/>
    <path id="Path_10" data-name="Path 10" d="M1456.318,122.969h-3.211V100.492h3.211Zm13.029,0-4.2-.031q-2.223-2.624-4.446-5.217-4.168-5.156-4.168-6.484,0-.957,3.829-5.65,2.191-2.531,4.353-5.095h4.137l-8.83,10.9Z" transform="translate(-1247.547 -65.114)" fill="#e1261c"/>
    <path id="Path_12" data-name="Path 12" d="M4.87-33.761v-2.975H7.924v-.931H4.87v-2.251H8.2v-.951H3.767v7.107Zm7.405,0v-7.107h-1.1v7.107Zm7.73-.955H16.7v-6.152h-1.1v7.107h4.413ZM30.15-40.868H28.869l-2.3,5.61h-.039l-2.3-5.61H22.959v7.107h1.005v-5.231H24l2.147,5.176h.817l2.142-5.177h.035v5.231h1.01Zm12.289,7.107h1.167L41.04-40.868H39.848l-2.566,7.107H38.43l.65-1.921h2.709ZM40.42-39.686h.03l1.059,3.118H39.361Zm13.168-1.183H52.307l-2.3,5.61h-.039l-2.3-5.609H46.4v7.107h1v-5.231h.035l2.147,5.176H50.4l2.142-5.177h.035v5.231h1.01Zm3.327,0v7.108h1.1V-36.19h1.645a2.259,2.259,0,0,0,2.379-2.344A2.234,2.234,0,0,0,59.7-40.868Zm1.1.931h1.389a1.327,1.327,0,0,1,1.507,1.409,1.333,1.333,0,0,1-1.507,1.414H58.019Zm11.41,5.221h-3.31v-6.151h-1.1v7.107h4.413Zm4.056.956v-7.107h-1.1v7.107Zm4.421,0v-2.975h3.054v-.931H77.905v-2.251H81.24v-.951H76.8v7.107Zm7.405,0v-7.107h-1.1v7.107Zm7.829-.955H89.731v-2.207h3.226v-.916H89.731v-2.078H93.14v-.951H88.628v7.107H93.14Zm3.15-6.152v7.107h2.546c2.118,0,3.364-1.32,3.364-3.565s-1.246-3.541-3.364-3.541Zm1.1.951h1.339c1.507,0,2.344.926,2.344,2.6s-.837,2.6-2.344,2.6H97.393Z" transform="translate(83.472 103.983)" fill="#fff"/>
    <path id="Path_11" data-name="Path 11" d="M0,0H180.8V51.133H0Z" transform="translate(41 23.997)" fill="none"/>
  </g>
</svg>
