<svg width="382" height="76" viewBox="0 0 382 76" fill="none" xmlns="http://www.w3.org/2000/svg">
<ellipse cx="6.22" cy="6.21994" rx="6.22" ry="6.21994" transform="matrix(-0.00310377 -0.999995 -0.999995 0.00310377 50.4766 12.4414)" fill="#E1261C"/>
<ellipse cx="6.22" cy="6.21994" rx="6.22" ry="6.21994" transform="matrix(-0.00310377 -0.999995 -0.999995 0.00310377 344.477 12.4414)" fill="#E1261C"/>
<mask id="path-3-inside-1_7994_19673" fill="white">
<path d="M43 12L43 33.05L339.11 33.05L339.11 12L43 12Z"/>
</mask>
<path d="M43 33.05L43 34.05L42 34.05L42 33.05L43 33.05ZM339.11 33.05L340.11 33.05L340.11 34.05L339.11 34.05L339.11 33.05ZM340.11 12L340.11 14.5059L338.11 14.5059L338.11 12L340.11 12ZM340.11 16.5107L340.11 21.5226L338.11 21.5226L338.11 16.5107L340.11 16.5107ZM340.11 23.5274L340.11 28.5393L338.11 28.5393L338.11 23.5274L340.11 23.5274ZM340.11 30.544L340.11 33.05L338.11 33.05L338.11 30.544L340.11 30.544ZM339.11 34.05L336.592 34.05L336.592 32.05L339.11 32.05L339.11 34.05ZM334.578 34.05L329.542 34.05L329.542 32.05L334.578 32.05L334.578 34.05ZM327.527 34.05L322.492 34.05L322.492 32.05L327.527 32.05L327.527 34.05ZM320.477 34.05L315.441 34.05L315.441 32.05L320.477 32.05L320.477 34.05ZM313.427 34.05L308.391 34.05L308.391 32.05L313.427 32.05L313.427 34.05ZM306.377 34.05L301.341 34.05L301.341 32.05L306.377 32.05L306.377 34.05ZM299.326 34.05L294.291 34.05L294.291 32.05L299.326 32.05L299.326 34.05ZM292.276 34.05L287.24 34.05L287.24 32.05L292.276 32.05L292.276 34.05ZM285.226 34.05L280.19 34.05L280.19 32.05L285.226 32.05L285.226 34.05ZM278.176 34.05L273.14 34.05L273.14 32.05L278.176 32.05L278.176 34.05ZM271.126 34.05L266.09 34.05L266.09 32.05L271.126 32.05L271.126 34.05ZM264.075 34.05L259.039 34.05L259.039 32.05L264.075 32.05L264.075 34.05ZM257.025 34.05L251.989 34.05L251.989 32.05L257.025 32.05L257.025 34.05ZM249.975 34.05L244.939 34.05L244.939 32.05L249.975 32.05L249.975 34.05ZM242.925 34.05L237.889 34.05L237.889 32.05L242.925 32.05L242.925 34.05ZM235.874 34.05L230.839 34.05L230.839 32.05L235.874 32.05L235.874 34.05ZM228.824 34.05L223.788 34.05L223.788 32.05L228.824 32.05L228.824 34.05ZM221.774 34.05L216.738 34.05L216.738 32.05L221.774 32.05L221.774 34.05ZM214.724 34.05L209.688 34.05L209.688 32.05L214.724 32.05L214.724 34.05ZM207.673 34.05L202.638 34.05L202.638 32.05L207.673 32.05L207.673 34.05ZM200.623 34.05L195.587 34.05L195.587 32.05L200.623 32.05L200.623 34.05ZM193.573 34.05L188.537 34.05L188.537 32.05L193.573 32.05L193.573 34.05ZM186.523 34.05L181.487 34.05L181.487 32.05L186.523 32.05L186.523 34.05ZM179.472 34.05L174.437 34.05L174.437 32.05L179.472 32.05L179.472 34.05ZM172.422 34.05L167.386 34.05L167.386 32.05L172.422 32.05L172.422 34.05ZM165.372 34.05L160.336 34.05L160.336 32.05L165.372 32.05L165.372 34.05ZM158.322 34.05L153.286 34.05L153.286 32.05L158.322 32.05L158.322 34.05ZM151.271 34.05L146.236 34.05L146.236 32.05L151.271 32.05L151.271 34.05ZM144.221 34.05L139.185 34.05L139.185 32.05L144.221 32.05L144.221 34.05ZM137.171 34.05L132.135 34.05L132.135 32.05L137.171 32.05L137.171 34.05ZM130.121 34.05L125.085 34.05L125.085 32.05L130.121 32.05L130.121 34.05ZM123.07 34.05L118.035 34.05L118.035 32.05L123.07 32.05L123.07 34.05ZM116.02 34.05L110.984 34.05L110.984 32.05L116.02 32.05L116.02 34.05ZM108.97 34.05L103.934 34.05L103.934 32.05L108.97 32.05L108.97 34.05ZM101.92 34.05L96.8839 34.05L96.8839 32.05L101.92 32.05L101.92 34.05ZM94.8695 34.05L89.8336 34.05L89.8336 32.05L94.8695 32.05L94.8695 34.05ZM87.8193 34.05L82.7833 34.05L82.7833 32.05L87.8193 32.05L87.8193 34.05ZM80.769 34.05L75.7331 34.05L75.7331 32.05L80.769 32.05L80.769 34.05ZM73.7188 34.05L68.6829 34.05L68.6829 32.05L73.7188 32.05L73.7188 34.05ZM66.6686 34.05L61.6327 34.05L61.6327 32.05L66.6686 32.05L66.6686 34.05ZM59.6183 34.05L54.5824 34.05L54.5824 32.05L59.6183 32.05L59.6183 34.05ZM52.5681 34.05L47.5322 34.05L47.5322 32.05L52.5681 32.05L52.5681 34.05ZM45.5178 34.05L43 34.05L43 32.05L45.5178 32.05L45.5178 34.05ZM42 33.05L42 30.544L44 30.544L44 33.05L42 33.05ZM42 28.5393L42 23.5274L44 23.5274L44 28.5393L42 28.5393ZM42 21.5226L42 16.5107L44 16.5107L44 21.5226L42 21.5226ZM42 14.506L42 12L44 12L44 14.506L42 14.506ZM43 33.05L43 35.05L41 35.05L41 33.05L43 33.05ZM339.11 33.05L341.11 33.05L341.11 35.05L339.11 35.05L339.11 33.05ZM341.11 12L341.11 14.5059L337.11 14.5059L337.11 12L341.11 12ZM341.11 16.5107L341.11 21.5226L337.11 21.5226L337.11 16.5107L341.11 16.5107ZM341.11 23.5274L341.11 28.5393L337.11 28.5393L337.11 23.5274L341.11 23.5274ZM341.11 30.544L341.11 33.05L337.11 33.05L337.11 30.544L341.11 30.544ZM339.11 35.05L336.592 35.05L336.592 31.05L339.11 31.05L339.11 35.05ZM334.578 35.05L329.542 35.05L329.542 31.05L334.578 31.05L334.578 35.05ZM327.527 35.05L322.492 35.05L322.492 31.05L327.527 31.05L327.527 35.05ZM320.477 35.05L315.441 35.05L315.441 31.05L320.477 31.05L320.477 35.05ZM313.427 35.05L308.391 35.05L308.391 31.05L313.427 31.05L313.427 35.05ZM306.377 35.05L301.341 35.05L301.341 31.05L306.377 31.05L306.377 35.05ZM299.326 35.05L294.291 35.05L294.291 31.05L299.326 31.05L299.326 35.05ZM292.276 35.05L287.24 35.05L287.24 31.05L292.276 31.05L292.276 35.05ZM285.226 35.05L280.19 35.05L280.19 31.05L285.226 31.05L285.226 35.05ZM278.176 35.05L273.14 35.05L273.14 31.05L278.176 31.05L278.176 35.05ZM271.126 35.05L266.09 35.05L266.09 31.05L271.126 31.05L271.126 35.05ZM264.075 35.05L259.039 35.05L259.039 31.05L264.075 31.05L264.075 35.05ZM257.025 35.05L251.989 35.05L251.989 31.05L257.025 31.05L257.025 35.05ZM249.975 35.05L244.939 35.05L244.939 31.05L249.975 31.05L249.975 35.05ZM242.925 35.05L237.889 35.05L237.889 31.05L242.925 31.05L242.925 35.05ZM235.874 35.05L230.839 35.05L230.839 31.05L235.874 31.05L235.874 35.05ZM228.824 35.05L223.788 35.05L223.788 31.05L228.824 31.05L228.824 35.05ZM221.774 35.05L216.738 35.05L216.738 31.05L221.774 31.05L221.774 35.05ZM214.724 35.05L209.688 35.05L209.688 31.05L214.724 31.05L214.724 35.05ZM207.673 35.05L202.638 35.05L202.638 31.05L207.673 31.05L207.673 35.05ZM200.623 35.05L195.587 35.05L195.587 31.05L200.623 31.05L200.623 35.05ZM193.573 35.05L188.537 35.05L188.537 31.05L193.573 31.05L193.573 35.05ZM186.523 35.05L181.487 35.05L181.487 31.05L186.523 31.05L186.523 35.05ZM179.472 35.05L174.437 35.05L174.437 31.05L179.472 31.05L179.472 35.05ZM172.422 35.05L167.386 35.05L167.386 31.05L172.422 31.05L172.422 35.05ZM165.372 35.05L160.336 35.05L160.336 31.05L165.372 31.05L165.372 35.05ZM158.322 35.05L153.286 35.05L153.286 31.05L158.322 31.05L158.322 35.05ZM151.271 35.05L146.236 35.05L146.236 31.05L151.271 31.05L151.271 35.05ZM144.221 35.05L139.185 35.05L139.185 31.05L144.221 31.05L144.221 35.05ZM137.171 35.05L132.135 35.05L132.135 31.05L137.171 31.05L137.171 35.05ZM130.121 35.05L125.085 35.05L125.085 31.05L130.121 31.05L130.121 35.05ZM123.07 35.05L118.035 35.05L118.035 31.05L123.07 31.05L123.07 35.05ZM116.02 35.05L110.984 35.05L110.984 31.05L116.02 31.05L116.02 35.05ZM108.97 35.05L103.934 35.05L103.934 31.05L108.97 31.05L108.97 35.05ZM101.92 35.05L96.8839 35.05L96.8839 31.05L101.92 31.05L101.92 35.05ZM94.8695 35.05L89.8336 35.05L89.8336 31.05L94.8695 31.05L94.8695 35.05ZM87.8193 35.05L82.7833 35.05L82.7833 31.05L87.8193 31.05L87.8193 35.05ZM80.769 35.05L75.7331 35.05L75.7331 31.05L80.769 31.05L80.769 35.05ZM73.7188 35.05L68.6829 35.05L68.6829 31.05L73.7188 31.05L73.7188 35.05ZM66.6686 35.05L61.6327 35.05L61.6327 31.05L66.6686 31.05L66.6686 35.05ZM59.6183 35.05L54.5824 35.05L54.5824 31.05L59.6183 31.05L59.6183 35.05ZM52.5681 35.05L47.5322 35.05L47.5322 31.05L52.5681 31.05L52.5681 35.05ZM45.5178 35.05L43 35.05L43 31.05L45.5178 31.05L45.5178 35.05ZM41 33.05L41 30.544L45 30.544L45 33.05L41 33.05ZM41 28.5393L41 23.5274L45 23.5274L45 28.5393L41 28.5393ZM41 21.5226L41 16.5107L45 16.5107L45 21.5226L41 21.5226ZM41 14.506L41 12L45 12L45 14.506L41 14.506Z" fill="black" mask="url(#path-3-inside-1_7994_19673)"/>
<mask id="path-5-inside-2_7994_19673" fill="white">
<path d="M43.0391 62.8594L43.0391 41.8094L339.149 41.8094L339.149 62.8594L43.0391 62.8594Z"/>
</mask>
<path d="M43.0391 41.8094L43.0391 40.8094L42.0391 40.8094L42.0391 41.8094L43.0391 41.8094ZM339.149 41.8094L340.149 41.8094L340.149 40.8094L339.149 40.8094L339.149 41.8094ZM340.149 62.8594L340.149 60.3534L338.149 60.3534L338.149 62.8594L340.149 62.8594ZM340.149 58.3486L340.149 53.3367L338.149 53.3367L338.149 58.3486L340.149 58.3486ZM340.149 51.332L340.149 46.3201L338.149 46.3201L338.149 51.332L340.149 51.332ZM340.149 44.3153L340.149 41.8094L338.149 41.8094L338.149 44.3153L340.149 44.3153ZM339.149 40.8094L336.631 40.8094L336.631 42.8094L339.149 42.8094L339.149 40.8094ZM334.617 40.8094L329.581 40.8094L329.581 42.8094L334.617 42.8094L334.617 40.8094ZM327.567 40.8094L322.531 40.8094L322.531 42.8094L327.567 42.8094L327.567 40.8094ZM320.516 40.8094L315.48 40.8094L315.48 42.8094L320.516 42.8094L320.516 40.8094ZM313.466 40.8094L308.43 40.8094L308.43 42.8094L313.466 42.8094L313.466 40.8094ZM306.416 40.8094L301.38 40.8094L301.38 42.8094L306.416 42.8094L306.416 40.8094ZM299.366 40.8094L294.33 40.8094L294.33 42.8094L299.366 42.8094L299.366 40.8094ZM292.315 40.8094L287.279 40.8094L287.279 42.8094L292.315 42.8094L292.315 40.8094ZM285.265 40.8094L280.229 40.8094L280.229 42.8094L285.265 42.8094L285.265 40.8094ZM278.215 40.8094L273.179 40.8094L273.179 42.8094L278.215 42.8094L278.215 40.8094ZM271.165 40.8094L266.129 40.8094L266.129 42.8094L271.165 42.8094L271.165 40.8094ZM264.114 40.8094L259.078 40.8094L259.078 42.8094L264.114 42.8094L264.114 40.8094ZM257.064 40.8094L252.028 40.8094L252.028 42.8094L257.064 42.8094L257.064 40.8094ZM250.014 40.8094L244.978 40.8094L244.978 42.8094L250.014 42.8094L250.014 40.8094ZM242.964 40.8094L237.928 40.8094L237.928 42.8094L242.964 42.8094L242.964 40.8094ZM235.913 40.8094L230.878 40.8094L230.878 42.8094L235.913 42.8094L235.913 40.8094ZM228.863 40.8094L223.827 40.8094L223.827 42.8094L228.863 42.8094L228.863 40.8094ZM221.813 40.8094L216.777 40.8094L216.777 42.8094L221.813 42.8094L221.813 40.8094ZM214.763 40.8094L209.727 40.8094L209.727 42.8094L214.763 42.8094L214.763 40.8094ZM207.713 40.8094L202.677 40.8094L202.677 42.8094L207.713 42.8094L207.713 40.8094ZM200.662 40.8094L195.626 40.8094L195.626 42.8094L200.662 42.8094L200.662 40.8094ZM193.612 40.8094L188.576 40.8094L188.576 42.8094L193.612 42.8094L193.612 40.8094ZM186.562 40.8094L181.526 40.8094L181.526 42.8094L186.562 42.8094L186.562 40.8094ZM179.512 40.8094L174.476 40.8094L174.476 42.8094L179.512 42.8094L179.512 40.8094ZM172.461 40.8094L167.425 40.8094L167.425 42.8094L172.461 42.8094L172.461 40.8094ZM165.411 40.8094L160.375 40.8094L160.375 42.8094L165.411 42.8094L165.411 40.8094ZM158.361 40.8094L153.325 40.8094L153.325 42.8094L158.361 42.8094L158.361 40.8094ZM151.311 40.8094L146.275 40.8094L146.275 42.8094L151.311 42.8094L151.311 40.8094ZM144.26 40.8094L139.224 40.8094L139.224 42.8094L144.26 42.8094L144.26 40.8094ZM137.21 40.8094L132.174 40.8094L132.174 42.8094L137.21 42.8094L137.21 40.8094ZM130.16 40.8094L125.124 40.8094L125.124 42.8094L130.16 42.8094L130.16 40.8094ZM123.11 40.8094L118.074 40.8094L118.074 42.8094L123.11 42.8094L123.11 40.8094ZM116.059 40.8094L111.023 40.8094L111.023 42.8094L116.059 42.8094L116.059 40.8094ZM109.009 40.8094L103.973 40.8094L103.973 42.8094L109.009 42.8094L109.009 40.8094ZM101.959 40.8094L96.9229 40.8094L96.9229 42.8094L101.959 42.8094L101.959 40.8094ZM94.9086 40.8094L89.8727 40.8094L89.8727 42.8094L94.9086 42.8094L94.9086 40.8094ZM87.8583 40.8094L82.8224 40.8094L82.8224 42.8094L87.8583 42.8094L87.8583 40.8094ZM80.8081 40.8094L75.7722 40.8094L75.7722 42.8094L80.8081 42.8094L80.8081 40.8094ZM73.7578 40.8094L68.722 40.8094L68.722 42.8094L73.7578 42.8094L73.7578 40.8094ZM66.7076 40.8094L61.6717 40.8094L61.6717 42.8094L66.7076 42.8094L66.7076 40.8094ZM59.6574 40.8094L54.6215 40.8094L54.6215 42.8094L59.6574 42.8094L59.6574 40.8094ZM52.6072 40.8094L47.5712 40.8094L47.5712 42.8094L52.6072 42.8094L52.6072 40.8094ZM45.5569 40.8094L43.0391 40.8094L43.0391 42.8094L45.5569 42.8094L45.5569 40.8094ZM42.0391 41.8094L42.0391 44.3153L44.0391 44.3153L44.0391 41.8094L42.0391 41.8094ZM42.0391 46.3201L42.0391 51.332L44.0391 51.332L44.0391 46.3201L42.0391 46.3201ZM42.0391 53.3368L42.0391 58.3487L44.0391 58.3487L44.0391 53.3368L42.0391 53.3368ZM42.0391 60.3534L42.0391 62.8594L44.0391 62.8594L44.0391 60.3534L42.0391 60.3534ZM43.0391 41.8094L43.0391 39.8094L41.0391 39.8094L41.0391 41.8094L43.0391 41.8094ZM339.149 41.8094L341.149 41.8094L341.149 39.8094L339.149 39.8094L339.149 41.8094ZM341.149 62.8594L341.149 60.3534L337.149 60.3534L337.149 62.8594L341.149 62.8594ZM341.149 58.3486L341.149 53.3367L337.149 53.3367L337.149 58.3486L341.149 58.3486ZM341.149 51.332L341.149 46.3201L337.149 46.3201L337.149 51.332L341.149 51.332ZM341.149 44.3153L341.149 41.8094L337.149 41.8094L337.149 44.3153L341.149 44.3153ZM339.149 39.8094L336.631 39.8094L336.631 43.8094L339.149 43.8094L339.149 39.8094ZM334.617 39.8094L329.581 39.8094L329.581 43.8094L334.617 43.8094L334.617 39.8094ZM327.567 39.8094L322.531 39.8094L322.531 43.8094L327.567 43.8094L327.567 39.8094ZM320.516 39.8094L315.48 39.8094L315.48 43.8094L320.516 43.8094L320.516 39.8094ZM313.466 39.8094L308.43 39.8094L308.43 43.8094L313.466 43.8094L313.466 39.8094ZM306.416 39.8094L301.38 39.8094L301.38 43.8094L306.416 43.8094L306.416 39.8094ZM299.366 39.8094L294.33 39.8094L294.33 43.8094L299.366 43.8094L299.366 39.8094ZM292.315 39.8094L287.279 39.8094L287.279 43.8094L292.315 43.8094L292.315 39.8094ZM285.265 39.8094L280.229 39.8094L280.229 43.8094L285.265 43.8094L285.265 39.8094ZM278.215 39.8094L273.179 39.8094L273.179 43.8094L278.215 43.8094L278.215 39.8094ZM271.165 39.8094L266.129 39.8094L266.129 43.8094L271.165 43.8094L271.165 39.8094ZM264.114 39.8094L259.078 39.8094L259.078 43.8094L264.114 43.8094L264.114 39.8094ZM257.064 39.8094L252.028 39.8094L252.028 43.8094L257.064 43.8094L257.064 39.8094ZM250.014 39.8094L244.978 39.8094L244.978 43.8094L250.014 43.8094L250.014 39.8094ZM242.964 39.8094L237.928 39.8094L237.928 43.8094L242.964 43.8094L242.964 39.8094ZM235.913 39.8094L230.878 39.8094L230.878 43.8094L235.913 43.8094L235.913 39.8094ZM228.863 39.8094L223.827 39.8094L223.827 43.8094L228.863 43.8094L228.863 39.8094ZM221.813 39.8094L216.777 39.8094L216.777 43.8094L221.813 43.8094L221.813 39.8094ZM214.763 39.8094L209.727 39.8094L209.727 43.8094L214.763 43.8094L214.763 39.8094ZM207.713 39.8094L202.677 39.8094L202.677 43.8094L207.713 43.8094L207.713 39.8094ZM200.662 39.8094L195.626 39.8094L195.626 43.8094L200.662 43.8094L200.662 39.8094ZM193.612 39.8094L188.576 39.8094L188.576 43.8094L193.612 43.8094L193.612 39.8094ZM186.562 39.8094L181.526 39.8094L181.526 43.8094L186.562 43.8094L186.562 39.8094ZM179.512 39.8094L174.476 39.8094L174.476 43.8094L179.512 43.8094L179.512 39.8094ZM172.461 39.8094L167.425 39.8094L167.425 43.8094L172.461 43.8094L172.461 39.8094ZM165.411 39.8094L160.375 39.8094L160.375 43.8094L165.411 43.8094L165.411 39.8094ZM158.361 39.8094L153.325 39.8094L153.325 43.8094L158.361 43.8094L158.361 39.8094ZM151.311 39.8094L146.275 39.8094L146.275 43.8094L151.311 43.8094L151.311 39.8094ZM144.26 39.8094L139.224 39.8094L139.224 43.8094L144.26 43.8094L144.26 39.8094ZM137.21 39.8094L132.174 39.8094L132.174 43.8094L137.21 43.8094L137.21 39.8094ZM130.16 39.8094L125.124 39.8094L125.124 43.8094L130.16 43.8094L130.16 39.8094ZM123.11 39.8094L118.074 39.8094L118.074 43.8094L123.11 43.8094L123.11 39.8094ZM116.059 39.8094L111.023 39.8094L111.023 43.8094L116.059 43.8094L116.059 39.8094ZM109.009 39.8094L103.973 39.8094L103.973 43.8094L109.009 43.8094L109.009 39.8094ZM101.959 39.8094L96.9229 39.8094L96.9229 43.8094L101.959 43.8094L101.959 39.8094ZM94.9086 39.8094L89.8727 39.8094L89.8727 43.8094L94.9086 43.8094L94.9086 39.8094ZM87.8583 39.8094L82.8224 39.8094L82.8224 43.8094L87.8583 43.8094L87.8583 39.8094ZM80.8081 39.8094L75.7722 39.8094L75.7722 43.8094L80.8081 43.8094L80.8081 39.8094ZM73.7578 39.8094L68.722 39.8094L68.722 43.8094L73.7578 43.8094L73.7578 39.8094ZM66.7076 39.8094L61.6717 39.8094L61.6717 43.8094L66.7076 43.8094L66.7076 39.8094ZM59.6574 39.8094L54.6215 39.8094L54.6215 43.8094L59.6574 43.8094L59.6574 39.8094ZM52.6072 39.8094L47.5712 39.8094L47.5712 43.8094L52.6072 43.8094L52.6072 39.8094ZM45.5569 39.8094L43.0391 39.8094L43.0391 43.8094L45.5569 43.8094L45.5569 39.8094ZM41.0391 41.8094L41.0391 44.3153L45.0391 44.3153L45.0391 41.8094L41.0391 41.8094ZM41.0391 46.3201L41.0391 51.332L45.0391 51.332L45.0391 46.3201L41.0391 46.3201ZM41.0391 53.3368L41.0391 58.3487L45.0391 58.3487L45.0391 53.3368L41.0391 53.3368ZM41.0391 60.3534L41.0391 62.8594L45.0391 62.8594L45.0391 60.3534L41.0391 60.3534Z" fill="black" mask="url(#path-5-inside-2_7994_19673)"/>
<ellipse cx="6.22" cy="6.21994" rx="6.22" ry="6.21994" transform="matrix(-0.00310377 -0.999995 -0.999995 0.00310377 49.4766 75.457)" fill="#E1261C"/>
<ellipse cx="6.22" cy="6.21994" rx="6.22" ry="6.21994" transform="matrix(-0.00310377 -0.999995 -0.999995 0.00310377 344.477 75.4414)" fill="#E1261C"/>
<ellipse cx="6.22" cy="6.21994" rx="6.22" ry="6.21994" transform="matrix(-0.00310377 -0.999995 -0.999995 0.00310377 381.477 12.4414)" fill="#E1261C"/>
<ellipse cx="6.22" cy="6.21994" rx="6.22" ry="6.21994" transform="matrix(-0.00310377 -0.999995 -0.999995 0.00310377 381.477 75.4414)" fill="#E1261C"/>
<path d="M375 11.9805L375 63.0197" stroke="black" stroke-width="2" stroke-dasharray="5 2"/>
<ellipse cx="6.22" cy="6.21994" rx="6.22" ry="6.21994" transform="matrix(-0.00310377 -0.999995 -0.999995 0.00310377 12.4766 12.4414)" fill="#E1261C"/>
<ellipse cx="6.22" cy="6.21994" rx="6.22" ry="6.21994" transform="matrix(-0.00310377 -0.999995 -0.999995 0.00310377 12.4766 75.4414)" fill="#E1261C"/>
<path d="M6 11.9805L6 63.0197" stroke="black" stroke-width="2" stroke-dasharray="5 2"/>
</svg>
