<svg xmlns="http://www.w3.org/2000/svg" width="62" height="62" viewBox="0 0 62 62">
  <g id="Group_30270" data-name="Group 30270" transform="translate(-914 -8056)">
    <g id="share">
      <g id="Rectangle_24579" data-name="Rectangle 24579" transform="translate(914 8056)" fill="none" stroke="#fff" stroke-width="2">
        <rect width="62" height="62" rx="15" stroke="none"/>
        <rect x="1" y="1" width="60" height="60" rx="14" fill="none"/>
      </g>
      <path id="share-3-svgrepo-com" d="M15.651,7.55,8.887,10.932m0,0a3.107,3.107,0,1,0,0,2.78m0-2.78a3.114,3.114,0,0,1,0,2.78m6.764,3.382L8.887,13.712m12.757-7.6A3.107,3.107,0,1,1,18.537,3,3.107,3.107,0,0,1,21.644,6.107Zm0,12.43a3.107,3.107,0,1,1-3.107-3.107A3.107,3.107,0,0,1,21.644,18.537Z" transform="translate(932.667 8074.5)" fill="none" stroke="#fff" stroke-linecap="round" stroke-width="2"/>
    </g>
  </g>
</svg>
